<mxfile host="65bd71144e">
    <diagram id="sxNC3JHZWc1DQdY0hXDp" name="Page-1">
        <mxGraphModel dx="1289" dy="1051" grid="1" gridSize="10" guides="1" tooltips="1" connect="1" arrows="1" fold="1" page="1" pageScale="1" pageWidth="827" pageHeight="1169" math="0" shadow="0">
            <root>
                <mxCell id="0"/>
                <mxCell id="1" parent="0"/>
                <mxCell id="2" value="Prefect Server" style="rounded=0;whiteSpace=wrap;html=1;" vertex="1" parent="1">
                    <mxGeometry x="180" y="300" width="120" height="60" as="geometry"/>
                </mxCell>
                <mxCell id="3" value="Data Collection Workflow" style="rounded=0;whiteSpace=wrap;html=1;" vertex="1" parent="1">
                    <mxGeometry x="180" y="400" width="120" height="60" as="geometry"/>
                </mxCell>
                <mxCell id="4" value="MongoDB" style="sketch=0;points=[[0,0,0],[0.25,0,0],[0.5,0,0],[0.75,0,0],[1,0,0],[0,1,0],[0.25,1,0],[0.5,1,0],[0.75,1,0],[1,1,0],[0,0.25,0],[0,0.5,0],[0,0.75,0],[1,0.25,0],[1,0.5,0],[1,0.75,0]];outlineConnect=0;dashed=0;verticalLabelPosition=bottom;verticalAlign=top;align=center;html=1;fontSize=12;fontStyle=0;aspect=fixed;shape=mxgraph.aws4.resourceIcon;resIcon=mxgraph.aws4.documentdb_with_mongodb_compatibility;" vertex="1" parent="1">
                    <mxGeometry x="380" y="240" width="98" height="98" as="geometry"/>
                </mxCell>
                <mxCell id="5" value="Streamlit UI" style="rounded=0;whiteSpace=wrap;html=1;" vertex="1" parent="1">
                    <mxGeometry x="530" y="380" width="120" height="60" as="geometry"/>
                </mxCell>
            </root>
        </mxGraphModel>
    </diagram>
</mxfile>